<?xml version="1.0" encoding="UTF-8" standalone="no"?>
<svg
   xmlns:dc="http://purl.org/dc/elements/1.1/"
   xmlns:cc="http://creativecommons.org/ns#"
   xmlns:rdf="http://www.w3.org/1999/02/22-rdf-syntax-ns#"
   xmlns:svg="http://www.w3.org/2000/svg"
   xmlns="http://www.w3.org/2000/svg"
   xmlns:sodipodi="http://sodipodi.sourceforge.net/DTD/sodipodi-0.dtd"
   xmlns:inkscape="http://www.inkscape.org/namespaces/inkscape"
   color-rendering="auto"
   color-interpolation="auto"
   text-rendering="auto"
   stroke-miterlimit="10"
   shape-rendering="auto"
   font-weight="normal"
   font-style="normal"
   font-size="12"
   image-rendering="auto"
   id="svg2"
   version="1.1"
   inkscape:version="0.48.2 r9819"
   width="110.1093"
   height="218.25"
   sodipodi:docname="music_sharp_u266F.svg"
   style="font-size:12px;font-style:normal;font-weight:normal;fill:#000000;fill-opacity:1;stroke:#000000;stroke-width:1;stroke-linecap:square;stroke-linejoin:miter;stroke-miterlimit:10;stroke-opacity:1;stroke-dasharray:none;stroke-dashoffset:0;font-family:Dialog">
  <metadata
     id="metadata13">
    <rdf:RDF>
      <cc:Work
         rdf:about="">
        <dc:format>image/svg+xml</dc:format>
        <dc:type
           rdf:resource="http://purl.org/dc/dcmitype/StillImage" />
      </cc:Work>
    </rdf:RDF>
  </metadata>
  <sodipodi:namedview
     pagecolor="#ffffff"
     bordercolor="#666666"
     borderopacity="1"
     objecttolerance="10"
     gridtolerance="10"
     guidetolerance="10"
     inkscape:pageopacity="0"
     inkscape:pageshadow="2"
     inkscape:window-width="640"
     inkscape:window-height="480"
     id="namedview11"
     showgrid="false"
     fit-margin-top="0"
     fit-margin-left="0"
     fit-margin-right="0"
     fit-margin-bottom="0"
     inkscape:zoom="0.22425739"
     inkscape:cx="363.75034"
     inkscape:cy="-133.97799"
     inkscape:window-x="0"
     inkscape:window-y="0"
     inkscape:window-maximized="0"
     inkscape:current-layer="svg2" />
  <!--Unicode Character 'MUSIC SHARP SIGN' (U+266F)-->
  <defs
     id="genericDefs" />
  <g
     id="g5"
     transform="translate(-8.2969,-173.9531)">
    <g
       id="g7">
      <path
         d="m 118.4062,324 -22.5,6.0469 0,44.2969 -10.125,0 0,-41.7657 -44.8593,12.0938 0,47.5312 -10.125,0 0,-44.8593 -22.5,6.0468 0,-25.1718 22.5,-6.0469 0,-61.0313 -22.5,6.0469 0,-25.0313 22.5,-6.0468 0,-44.2969 10.125,0 0,41.7656 44.8593,-12.0937 0,-47.5313 10.125,0 0,44.8594 22.5,-6.0469 0,25.0313 -22.5,6.0469 0,61.1718 22.5,-6.0468 0,25.0312 z m -32.625,-16.4531 0,-61.0313 -44.8593,12.0938 0,61.0312 44.8593,-12.0937 z"
         id="path9"
         inkscape:connector-curvature="0"
         style="stroke:none" />
    </g>
  </g>
</svg>
